<svg id="Layer_1" data-name="Layer 1" xmlns="http://www.w3.org/2000/svg"
     viewBox="0 0 28.66488 28.66488">
    <defs>
        <style>.cls-1{fill:#c53131;}</style>
    </defs>
    <path class="cls-1"
          d="M23.0758,14.78018l5.58908-4.16672-6.9865-.89578,1.99422-6.5419L17.473,6.43326,15.11241,0,12.07365,6.14833,6.25382,2.29376l1.2753,6.70472-7.04067.19,5.10091,4.69616L0,18.05142l7,.89578L5.00575,25.48881l6.19964-3.24372,2.36055,6.41979L16.605,22.51655l5.80607,3.85456-1.275-6.705,7.05414-.18976ZM14.339,21.32237c-3.29159,0-6.98649-3.69662-6.98649-6.98993s3.6949-6.98965,6.98649-6.98965c3.29187,0,6.9733,3.69663,6.9733,6.98965S17.6309,21.32237,14.339,21.32237Z"/>
</svg>