<?xml version="1.0" encoding="UTF-8"?>
<svg width="43px" height="39px" viewBox="0 0 43 39" version="1.1" xmlns="http://www.w3.org/2000/svg" xmlns:xlink="http://www.w3.org/1999/xlink">
    <g id="Mobile" stroke="none" stroke-width="1" fill="none" fill-rule="evenodd">
        <g id="print" fill="#c53131">
            <path d="M8.2404,0.0003 L8.2404,7.8443 L0.0004,7.8443 L0.0004,28.7243 L8.2404,28.7243 L8.2404,38.4933 L34.4604,38.4933 L34.4604,28.7243 L42.2194,28.7243 L42.2194,7.8443 L34.4604,7.8443 L34.4604,0.0003 L8.2404,0.0003 Z M11.2404,7.8453 L31.4604,7.8453 L31.4604,3.0003 L11.2404,3.0003 L11.2404,7.8453 Z M36.8004,13.2653 L40.3004,13.2653 L40.3004,9.7553 L36.8004,9.7553 L36.8004,13.2653 Z M11.2404,35.4933 L31.4604,35.4933 L31.4604,28.7243 L11.2404,28.7243 L11.2404,35.4933 Z" id="Fill-1"></path>
            <polygon id="Fill-2" points="13.146 33.9653 29.839 33.9653 29.839 32.6033 13.146 32.6033"></polygon>
            <polygon id="Fill-3" points="13.146 31.3453 29.839 31.3453 29.839 29.9833 13.146 29.9833"></polygon>
        </g>
    </g>
</svg>