<?xml version="1.0" encoding="UTF-8"?>
<svg width="21px" height="21px" viewBox="0 0 21 21" version="1.1" xmlns="http://www.w3.org/2000/svg" xmlns:xlink="http://www.w3.org/1999/xlink">
    <!-- Generator: Sketch 44.1 (41455) - http://www.bohemiancoding.com/sketch -->
    <title>tips_inactive</title>
    <desc>Created with Sketch.</desc>
    <defs>
        <polygon id="path-1" points="0 21.4849 20.485 21.4849 20.485 0.9999 0 0.9999"></polygon>
    </defs>
    <g id="Page-1" stroke="none" stroke-width="1" fill="none" fill-rule="evenodd">
        <g id="tips_inactive" transform="translate(0.000000, -1.000000)">
            <g id="Page-1">
                <g id="Group-3" transform="translate(0.000000, 0.484900)" fill="#565656">
                    <path d="M20.4849,10.7576 C20.4849,16.4146 15.8989,20.9996 10.2429,20.9996 C4.5859,20.9996 -0.0001,16.4146 -0.0001,10.7576 C-0.0001,5.1006 4.5859,0.5156 10.2429,0.5156 C15.8989,0.5156 20.4849,5.1006 20.4849,10.7576" id="Fill-1"></path>
                </g>
                <mask id="mask-2" fill="white">
                    <use xlink:href="#path-1"></use>
                </mask>
                <g id="Clip-5"></g>
                <path d="M8.722,17.6319 L11.199,17.6319 L11.199,15.5259 L8.722,15.5259 L8.722,17.6319 Z M8.73,14.1439 C8.736,13.3569 8.853,12.7819 9.08,12.4169 C9.307,12.0509 9.761,11.6079 10.441,11.0849 C10.84,10.7599 11.158,10.4079 11.397,10.0319 C11.636,9.6559 11.755,9.2339 11.755,8.7679 C11.755,8.2519 11.619,7.8469 11.346,7.5549 C11.074,7.2629 10.685,7.1169 10.18,7.1169 C9.764,7.1169 9.411,7.2399 9.122,7.4879 C8.833,7.7349 8.685,8.0969 8.68,8.5739 L6.287,8.5739 L6.27,8.5239 C6.253,7.4449 6.608,6.6199 7.336,6.0469 C8.063,5.4739 9.011,5.1869 10.18,5.1869 C11.438,5.1869 12.425,5.5059 13.141,6.1439 C13.857,6.7809 14.215,7.6479 14.215,8.7429 C14.215,9.4559 14.006,10.1159 13.588,10.7229 C13.169,11.3299 12.645,11.8379 12.016,12.2479 C11.674,12.5119 11.449,12.7769 11.342,13.0439 C11.236,13.3109 11.182,13.6779 11.182,14.1439 L8.73,14.1439 Z" id="Fill-4" fill="#333333" mask="url(#mask-2)"></path>
            </g>
        </g>
    </g>
</svg>